<svg width="70" height="37" viewBox="0 0 70 37" fill="none" xmlns="http://www.w3.org/2000/svg">
<line x1="1" y1="-1" x2="28.4334" y2="-1" transform="matrix(-0.0105787 0.999944 -0.99994 -0.0109283 0.313995 1)" stroke="#33D6A6" stroke-width="2" stroke-linecap="square"/>
<line x1="1" y1="-1" x2="4.4854" y2="-1" transform="matrix(-0.476626 0.879106 -0.86261 -0.50587 67.046 2.17017)" stroke="#33D6A6" stroke-width="2" stroke-linecap="square"/>
<line x1="1" y1="-1" x2="31.274" y2="-1" transform="matrix(-0.0143495 0.999897 -0.99988 -0.0155209 4.94511 3.72937)" stroke="#33D6A6" stroke-width="2" stroke-linecap="square"/>
<line x1="1" y1="-1" x2="20.6191" y2="-1" transform="matrix(0.999951 0.00995306 -0.0101242 0.999949 8.02789 30.4318)" stroke="#33D6A6" stroke-width="2" stroke-linecap="square"/>
<line x1="1" y1="29.5394" x2="2.21798" y2="29.5394" stroke="#33D6A6" stroke-width="2" stroke-linecap="square"/>
<line x1="5.81883" y1="35" x2="32.7004" y2="35" stroke="#33D6A6" stroke-width="2" stroke-linecap="square"/>
<line x1="1" y1="-1" x2="5.64676" y2="-1" transform="matrix(0.603848 0.797099 -0.77349 0.633808 28.4094 30.22)" stroke="#33D6A6" stroke-width="2" stroke-linecap="square"/>
<line x1="1" y1="-1" x2="4.37555" y2="-1" transform="matrix(0.861515 0.507732 -0.478449 0.878115 1.08585 2.44495)" stroke="#33D6A6" stroke-width="2" stroke-linecap="square"/>
<line x1="1" y1="-1" x2="24.5158" y2="-1" transform="matrix(-0.999898 -0.0142793 0.0132016 -0.999913 68.4337 1.36438)" stroke="#33D6A6" stroke-width="2" stroke-linecap="square"/>
<line x1="1" y1="-1" x2="26.8411" y2="-1" transform="matrix(-0.999913 -0.0132204 0.0122226 -0.999925 65.8193 6.18652)" stroke="#33D6A6" stroke-width="2" stroke-linecap="square"/>
<line x1="1" y1="-1" x2="26.9954" y2="-1" transform="matrix(-0.999913 -0.0132204 0.0122226 -0.999925 65.8193 6.18652)" stroke="#33D6A6" stroke-width="2" stroke-linecap="square"/>
<line x1="1" y1="-1" x2="29.7714" y2="-1" transform="matrix(-0.00162038 0.999999 -0.999998 -0.00175269 39.8329 1.16064)" stroke="#33D6A6" stroke-width="2" stroke-linecap="square"/>
<line x1="1" y1="-1" x2="11.8439" y2="-1" transform="matrix(0.000102266 1 -1 0.000110616 34.893 5.81653)" stroke="#33D6A6" stroke-width="2" stroke-linecap="square"/>
<line x1="1" y1="-1" x2="14.6906" y2="-1" transform="matrix(-0.00265625 0.999997 -0.999996 -0.00287314 34.893 20.2659)" stroke="#33D6A6" stroke-width="2" stroke-linecap="square"/>
<line x1="1" y1="-1" x2="5.58657" y2="-1" transform="matrix(-0.772135 0.635459 -0.605519 -0.795831 40.3979 30.6461)" stroke="#33D6A6" stroke-width="2" stroke-linecap="square"/>
<line x1="1" y1="-1" x2="25.0809" y2="-1" transform="matrix(-0.999959 -0.00903143 0.00834971 -0.999965 69 14.2623)" stroke="#33D6A6" stroke-width="2" stroke-linecap="square"/>
<line x1="1" y1="-1" x2="27.4079" y2="-1" transform="matrix(-0.999875 -0.015789 0.0145973 -0.999893 66.3855 19.0846)" stroke="#33D6A6" stroke-width="2" stroke-linecap="square"/>
<line x1="1" y1="-1" x2="4.4854" y2="-1" transform="matrix(-0.476626 0.879106 -0.86261 -0.50587 67.6123 15.0681)" stroke="#33D6A6" stroke-width="2" stroke-linecap="square"/>
</svg>
