<svg width="442" height="219" viewBox="0 0 442 219" fill="none" xmlns="http://www.w3.org/2000/svg">
<line x1="31.9248" y1="22.0741" x2="29.0741" y2="213.075" stroke="#33D6A6" stroke-width="10" stroke-linecap="square"/>
<line x1="50.0351" y1="180.035" x2="182.035" y2="180.965" stroke="#33D6A6" stroke-width="10" stroke-linecap="square"/>
<line x1="5" y1="181" x2="12" y2="181" stroke="#33D6A6" stroke-width="10" stroke-linecap="square"/>
<line x1="30" y1="213" x2="207" y2="213" stroke="#33D6A6" stroke-width="10" stroke-linecap="square"/>
<line x1="186.022" y1="182.833" x2="205.833" y2="207.978" stroke="#33D6A6" stroke-width="10" stroke-linecap="square"/>
<line x1="8.81517" y1="7.11495" x2="30.115" y2="19.1848" stroke="#33D6A6" stroke-width="10" stroke-linecap="square"/>
<line x1="433.206" y1="7.20029" x2="277.931" y2="5.06818" stroke="#33D6A6" stroke-width="10" stroke-linecap="square"/>
<line x1="416.275" y1="37.2413" x2="245.936" y2="35.0759" stroke="#33D6A6" stroke-width="10" stroke-linecap="square"/>
<line x1="416.275" y1="37.2413" x2="244.936" y2="35.0632" stroke="#33D6A6" stroke-width="10" stroke-linecap="square"/>
<line x1="257.992" y1="6.00842" x2="257.685" y2="187.671" stroke="#33D6A6" stroke-width="10" stroke-linecap="square"/>
<line x1="226.001" y1="34.9995" x2="226.008" y2="104.999" stroke="#33D6A6" stroke-width="10" stroke-linecap="square"/>
<line x1="225.986" y1="125.014" x2="225.744" y2="212.744" stroke="#33D6A6" stroke-width="10" stroke-linecap="square"/>
<line x1="255.842" y1="191.678" x2="230.739" y2="211.542" stroke="#33D6A6" stroke-width="10" stroke-linecap="square"/>
<line x1="436.899" y1="87.5625" x2="277.955" y2="86.1822" stroke="#33D6A6" stroke-width="10" stroke-linecap="square"/>
<line x1="419.931" y1="117.565" x2="245.926" y2="114.924" stroke="#33D6A6" stroke-width="10" stroke-linecap="square"/>
</svg>
